<?xml version="1.0" encoding="UTF-8" standalone="no"?>
<!-- Created with Inkscape (http://www.inkscape.org/) -->

<svg
   xmlns:dc="http://purl.org/dc/elements/1.1/"
   xmlns:cc="http://creativecommons.org/ns#"
   xmlns:rdf="http://www.w3.org/1999/02/22-rdf-syntax-ns#"
   xmlns:svg="http://www.w3.org/2000/svg"
   xmlns="http://www.w3.org/2000/svg"
   xmlns:sodipodi="http://sodipodi.sourceforge.net/DTD/sodipodi-0.dtd"
   xmlns:inkscape="http://www.inkscape.org/namespaces/inkscape"
   width="572.65515"
   height="112.16535"
   id="svg2"
   version="1.1"
   inkscape:version="0.47 r22583"
   sodipodi:docname="New document 1">
  <defs
     id="defs4">
    <inkscape:perspective
       sodipodi:type="inkscape:persp3d"
       inkscape:vp_x="0 : 526.18109 : 1"
       inkscape:vp_y="0 : 1000 : 0"
       inkscape:vp_z="744.09448 : 526.18109 : 1"
       inkscape:persp3d-origin="372.04724 : 350.78739 : 1"
       id="perspective10" />
  </defs>
  <sodipodi:namedview
     id="base"
     pagecolor="#ffffff"
     bordercolor="#666666"
     borderopacity="1.0"
     inkscape:pageopacity="0.0"
     inkscape:pageshadow="2"
     inkscape:zoom="1.4"
     inkscape:cx="316.92583"
     inkscape:cy="-1.1013224"
     inkscape:document-units="px"
     inkscape:current-layer="layer1"
     showgrid="false"
     inkscape:window-width="714"
     inkscape:window-height="845"
     inkscape:window-x="0"
     inkscape:window-y="0"
     inkscape:window-maximized="0" />
  <metadata
     id="metadata7">
    <rdf:RDF>
      <cc:Work
         rdf:about="">
        <dc:format>image/svg+xml</dc:format>
        <dc:type
           rdf:resource="http://purl.org/dc/dcmitype/StillImage" />
        <dc:title></dc:title>
      </cc:Work>
    </rdf:RDF>
  </metadata>
  <g
     inkscape:label="Layer 1"
     inkscape:groupmode="layer"
     id="layer1"
     transform="translate(-76.130585,-356.5816)">
    <path
       d="m 262.21428,426.29074 c 0,10.29617 -8.34669,18.64286 -18.64285,18.64286 -10.29617,0 -18.64286,-8.34669 -18.64286,-18.64286 0,-10.29617 8.34669,-18.64286 18.64286,-18.64286 10.29616,0 18.64285,8.34669 18.64285,18.64286 z"
       sodipodi:ry="18.642859"
       sodipodi:rx="18.642859"
       sodipodi:cy="426.29074"
       sodipodi:cx="243.57143"
       style="fill:#d0d0d0;fill-opacity:0.52036223;stroke:#000000;stroke-opacity:1"
       id="path2826"
       sodipodi:type="arc"
       transform="matrix(1.8538422,0,0,1.8538422,-195.91229,-380.33)" />
    <path
       d="m 274.7143,416.64789 c 0,10.29616 -8.34669,18.64286 -18.64286,18.64286 -10.29616,0 -18.64286,-8.3467 -18.64286,-18.64286 0,-10.29617 8.3467,-18.64286 18.64286,-18.64286 10.29617,0 18.64286,8.34669 18.64286,18.64286 z"
       sodipodi:ry="18.642859"
       sodipodi:rx="18.642859"
       sodipodi:cy="416.64789"
       sodipodi:cx="256.07144"
       style="fill:#d0d0d0;fill-opacity:0.52036223;stroke:#000000;stroke-opacity:1"
       id="path2828"
       sodipodi:type="arc"
       transform="matrix(1.8538422,0,0,1.8538422,-195.91229,-380.33)" />
    <path
       sodipodi:type="arc"
       id="path3606"
       style="fill:#d0d0d0;fill-opacity:0.52036229;stroke:#000000;stroke-opacity:1"
       sodipodi:cx="256.07144"
       sodipodi:cy="416.64789"
       sodipodi:rx="18.642859"
       sodipodi:ry="18.642859"
       d="m 274.7143,416.64789 c 0,10.29616 -8.34669,18.64286 -18.64286,18.64286 -10.29616,0 -18.64286,-8.3467 -18.64286,-18.64286 0,-10.29617 8.3467,-18.64286 18.64286,-18.64286 10.29617,0 18.64286,8.34669 18.64286,18.64286 z"
       transform="matrix(1.8538422,0,0,1.8538422,138.58185,-369.07453)" />
    <path
       sodipodi:type="arc"
       id="path2816"
       style="fill:#000000;stroke:none"
       sodipodi:cx="243.57143"
       sodipodi:cy="426.29074"
       sodipodi:rx="1.5000013"
       sodipodi:ry="1.5000013"
       d="m 245.07143,426.29074 c 0,0.82843 -0.67158,1.5 -1.5,1.5 -0.82843,0 -1.5,-0.67157 -1.5,-1.5 0,-0.82843 0.67157,-1.5 1.5,-1.5 0.82842,0 1.5,0.67157 1.5,1.5 z"
       transform="matrix(1.8538422,0,0,1.8538422,-195.91229,-380.33)" />
    <path
       sodipodi:type="arc"
       id="path2818"
       style="fill:#000000;stroke:none"
       sodipodi:cx="256.07144"
       sodipodi:cy="416.64789"
       sodipodi:rx="1.5000013"
       sodipodi:ry="1.5000013"
       d="m 257.57144,416.64789 c 0,0.82843 -0.67157,1.5 -1.5,1.5 -0.82843,0 -1.5,-0.67157 -1.5,-1.5 0,-0.82843 0.67157,-1.5 1.5,-1.5 0.82843,0 1.5,0.67157 1.5,1.5 z"
       transform="matrix(1.8538422,0,0,1.8538422,-195.91229,-380.33)" />
    <path
       d="m 245.07143,426.29074 c 0,0.82843 -0.67158,1.5 -1.5,1.5 -0.82843,0 -1.5,-0.67157 -1.5,-1.5 0,-0.82843 0.67157,-1.5 1.5,-1.5 0.82842,0 1.5,0.67157 1.5,1.5 z"
       sodipodi:ry="1.5000013"
       sodipodi:rx="1.5000013"
       sodipodi:cy="426.29074"
       sodipodi:cx="243.57143"
       style="fill:#000000;stroke:none"
       id="path2822"
       sodipodi:type="arc"
       transform="matrix(1.8538422,0,0,1.8538422,154.47192,-380.33)" />
    <path
       d="m 257.57144,416.64789 c 0,0.82843 -0.67157,1.5 -1.5,1.5 -0.82843,0 -1.5,-0.67157 -1.5,-1.5 0,-0.82843 0.67157,-1.5 1.5,-1.5 0.82843,0 1.5,0.67157 1.5,1.5 z"
       sodipodi:ry="1.5000013"
       sodipodi:rx="1.5000013"
       sodipodi:cy="416.64789"
       sodipodi:cx="256.07144"
       style="fill:#000000;stroke:none"
       id="path2824"
       sodipodi:type="arc"
       transform="matrix(1.8538422,0,0,1.8538422,154.47192,-380.33)" />
    <path
       style="color:#000000;fill:none;stroke:#000000;stroke-width:1.85384214;stroke-linecap:butt;stroke-linejoin:miter;stroke-miterlimit:4;stroke-opacity:1;stroke-dasharray:5.56152654, 5.56152654;stroke-dashoffset:10.38151621;marker:none;visibility:visible;display:inline;overflow:visible;enable-background:accumulate"
       d="m 613.29788,394.28344 2e-5,18.08294"
       id="path3608" />
    <path
       id="path3610"
       d="m 622.33934,403.32491 -18.08291,0"
       style="color:#000000;fill:none;stroke:#000000;stroke-width:1.85384214;stroke-linecap:butt;stroke-linejoin:miter;stroke-miterlimit:4;stroke-opacity:1;stroke-dasharray:5.56152654, 5.56152654;stroke-dashoffset:10.38151621;marker:none;visibility:visible;display:inline;overflow:visible;enable-background:accumulate" />
    <text
       xml:space="preserve"
       style="font-size:18px;font-style:normal;font-variant:normal;font-weight:bold;font-stretch:normal;text-align:start;text-anchor:start;fill:#000000;fill-opacity:1;stroke:none;font-family:DejaVu Sans;-inkscape-font-specification:Bitstream Charter Bold"
       x="75.357147"
       y="374.86218"
       id="text3612"><tspan
         sodipodi:role="line"
         id="tspan3614"
         x="75.357147"
         y="374.86218">Normal muon</tspan><tspan
         sodipodi:role="line"
         x="75.357147"
         y="397.36218"
         id="tspan3624">isolation: in</tspan><tspan
         sodipodi:role="line"
         x="75.357147"
         y="419.86218"
         id="tspan3618">each other's</tspan><tspan
         sodipodi:role="line"
         x="75.357147"
         y="442.36218"
         id="tspan3620">cones and</tspan><tspan
         sodipodi:role="line"
         x="75.357147"
         y="464.86218"
         id="tspan3659">double-counting</tspan></text>
    <text
       id="text3630"
       y="374.86218"
       x="381.07144"
       style="font-size:18px;font-style:normal;font-variant:normal;font-weight:bold;font-stretch:normal;text-align:start;text-anchor:start;fill:#000000;fill-opacity:1;stroke:none;font-family:DejaVu Sans;-inkscape-font-specification:Bitstream Charter Bold"
       xml:space="preserve"><tspan
         y="374.86218"
         x="381.07144"
         sodipodi:role="line"
         id="tspan3649">μ-group isolation:</tspan><tspan
         y="397.36218"
         x="381.07144"
         sodipodi:role="line"
         id="tspan3653">one cone around</tspan><tspan
         y="419.86218"
         x="381.07144"
         sodipodi:role="line"
         id="tspan3655">group momentum</tspan><tspan
         y="442.36218"
         x="381.07144"
         sodipodi:role="line"
         id="tspan3657">axis</tspan></text>
  </g>
</svg>
